<svg width="49" height="36" viewBox="0 0 49 36" fill="none" xmlns="http://www.w3.org/2000/svg">
<path fill-rule="evenodd" clip-rule="evenodd" d="M44.5046 0C45.9728 0 47.2766 0.671034 48.097 1.70896L24.2705 20.7603L0.656244 2.05491C1.44579 0.822564 2.86985 0 4.49541 0H44.5046ZM0 31.7143V5.43551L16.9439 18.8571L0.0349283 32.2511C0.0118806 32.0753 0 31.8961 0 31.7143ZM1.54962 34.9517C2.33857 35.6047 3.36857 36 4.49541 36H44.5046C45.4731 36 46.3701 35.708 47.104 35.2113L29.0991 20.8149L25.8614 23.4038C24.9457 24.136 23.6117 24.1389 22.6924 23.4107L19.4059 20.8074L1.54962 34.9517ZM31.5476 18.8571L48.8771 32.7136C48.9575 32.393 49 32.0584 49 31.7143V4.90243L31.5476 18.8571Z" fill="#4D0072"/>
</svg>
